<?xml version="1.0" encoding="UTF-8"?>
<svg width="616" height="684" viewBox="0 0 616 684" fill="none" xmlns="http://www.w3.org/2000/svg">
  <!-- Background -->
  <rect width="616" height="684" rx="12" fill="#1E1E2E"/>
  
  <!-- Header -->
  <rect width="616" height="60" rx="12" fill="#2A2A3C"/>
  <circle cx="30" cy="30" r="8" fill="#FF5F57"/>
  <circle cx="54" cy="30" r="8" fill="#FEBC2E"/>
  <circle cx="78" cy="30" r="8" fill="#28C840"/>
  
  <!-- Waveform -->
  <rect x="40" y="100" width="536" height="100" rx="8" fill="#2A2A3C"/>
  <path d="M60 150 Q 80 120, 100 150 T 140 150 T 180 150 T 220 150 T 260 150 T 300 150 T 340 150 T 380 150 T 420 150 T 460 150 T 500 150 T 540 150" 
        stroke="#6366F1" stroke-width="4" fill="none"/>
  
  <!-- Text Content -->
  <rect x="40" y="240" width="536" height="40" rx="8" fill="#2A2A3C" opacity="0.7"/>
  <rect x="40" y="300" width="456" height="40" rx="8" fill="#2A2A3C" opacity="0.7"/>
  <rect x="40" y="360" width="496" height="40" rx="8" fill="#2A2A3C" opacity="0.7"/>
  <rect x="40" y="420" width="416" height="40" rx="8" fill="#2A2A3C" opacity="0.7"/>
  <rect x="40" y="480" width="536" height="40" rx="8" fill="#2A2A3C" opacity="0.7"/>
  
  <!-- Progress Bar -->
  <rect x="40" y="560" width="536" height="8" rx="4" fill="#2A2A3C"/>
  <rect x="40" y="560" width="216" height="8" rx="4" fill="#6366F1"/>
  
  <!-- Controls -->
  <circle cx="308" cy="620" r="24" fill="#6366F1"/>
  <path d="M300 610 L320 620 L300 630 Z" fill="white"/>
  
  <!-- Time Labels -->
  <text x="40" y="640" fill="#6B7280" font-family="system-ui" font-size="14">00:00</text>
  <text x="548" y="640" fill="#6B7280" font-family="system-ui" font-size="14">05:23</text>
</svg>
